<?xml version="1.0" ?><svg fill="white" height="338" viewBox="0 0 235 338" width="235" xmlns="http://www.w3.org/2000/svg"><path d="M0.0100243 169.07C0.0100243 123.2 -0.0199757 77.3401 0.0300243 31.4701C0.0500243 16.6601 9.03002 5.20005 22.91 2.01005C25.96 1.31005 29.07 1.00005 32.21 1.00005C70.45 1.01005 108.69 0.980053 146.94 1.02005C163.24 1.04005 175.02 9.84005 178.56 24.4201C179.25 27.2601 179.12 30.1301 179.12 33.0001C179.15 57.4901 179.21 81.9901 179.06 106.48C179.04 110.28 180.17 111.39 183.95 111.39C193.94 111.37 203.95 110.65 213.91 111.81C225.58 113.18 234.51 122.98 234.57 134.77C234.71 160.51 234.7 186.26 234.61 212C234.56 226.24 224.3 236.46 209.96 236.67C201.09 236.8 192.21 236.83 183.34 236.64C180.04 236.57 179.05 237.64 179.07 240.93C179.19 262.42 178.66 283.93 179.29 305.41C179.75 321.22 168.12 337.1 147.75 337.09C109.01 337.07 70.27 337.14 31.52 337.06C15.7 337.02 3.63002 327.64 0.510024 313.38C-0.139976 310.41 0.0300243 307.41 0.0300243 304.42C2.42535e-05 259.3 0.0100243 214.18 0.0100243 169.07ZM11.54 168.76C11.54 214.25 11.74 259.74 11.41 305.23C11.32 317.93 20.12 325.62 31.68 325.58C70.3 325.46 108.91 325.47 147.53 325.57C159.34 325.6 167.96 317.7 167.72 305.55C167.31 284.31 167.61 263.06 167.6 241.82C167.6 236.72 167.58 236.71 162.3 236.71C143.18 236.7 124.06 236.72 104.94 236.7C88.02 236.69 77.87 227.1 77.69 210.19C77.43 186.2 77.58 162.2 77.67 138.21C77.69 133.98 78.06 129.71 79.96 125.77C84.85 115.59 93.31 111.34 104.21 111.31C123.83 111.26 143.45 111.23 163.07 111.35C166.45 111.37 167.67 110.3 167.66 106.83C167.55 81.7101 167.66 56.5901 167.57 31.4701C167.53 20.2501 159.94 12.7301 148.73 12.5801C140.61 12.4701 132.48 12.5901 124.36 12.5301C122.35 12.5101 120.83 12.7801 119.82 14.8901C118.74 17.1501 116.49 17.7301 114.1 17.7301C97.73 17.7301 81.36 17.7301 64.99 17.7301C62.43 17.7301 60.2 16.9501 59.09 14.5301C58.22 12.6401 56.8 12.5501 55.1 12.5501C46.85 12.5801 38.6 12.4901 30.36 12.5901C24 12.6701 18.72 15.1001 14.79 20.2501C11.88 24.0701 11.51 28.4701 11.51 33.0501C11.55 78.2801 11.54 123.52 11.54 168.76ZM156.33 225.08C173.82 225.08 191.31 225.09 208.8 225.07C218.28 225.06 223.06 220.31 223.08 210.77C223.12 190.16 223.11 169.54 223.07 148.93C223.07 147.65 223.76 145.86 222.24 145.2C221.03 144.68 220.06 146.14 219.1 146.86C200.1 161.08 181.11 175.33 162.12 189.57C156.94 193.45 155.69 193.45 150.58 189.63C131.19 175.1 111.8 160.55 92.39 146.04C91.57 145.42 90.86 144.07 89.58 144.76C89.18 144.98 89.14 146.1 89.14 146.81C89.13 168.17 89 189.54 89.21 210.9C89.3 220.34 94.5 225.07 103.85 225.08C121.35 225.1 138.84 225.08 156.33 225.08ZM156.49 122.81C139.12 122.81 121.76 122.81 104.39 122.81C99.72 122.81 95.47 123.83 92.29 127.61C90.95 129.2 90.67 130.4 92.66 131.88C113.19 147.19 133.68 162.56 154.14 177.96C155.69 179.12 156.89 179.16 158.46 177.98C178.92 162.58 199.41 147.21 219.93 131.89C221.89 130.43 221.71 129.28 220.3 127.65C217.08 123.94 212.9 122.79 208.21 122.8C190.98 122.82 173.74 122.81 156.49 122.81Z" fill="white"/><path d="M89.7601 291.79C97.8801 291.79 106 291.75 114.12 291.8C118.26 291.82 120.45 293.59 120.68 296.91C120.92 300.34 118.74 302.92 114.67 303.1C108.19 303.4 101.69 303.28 95.1901 303.29C86.0701 303.31 76.95 303.31 67.84 303.28C66.35 303.28 64.83 303.21 63.37 302.93C60.09 302.31 58.3301 300.29 58.4801 296.89C58.6101 293.83 60.79 291.85 64.28 291.82C72.77 291.74 81.2601 291.8 89.7601 291.79Z" fill="white"/></svg>
